PathFileType	4	(X/Y/Z)	Apose_0-50.trc
DataRate	CameraRate	NumFrames	NumMarkers	Units	OrigDataRate	OrigDataStartFrame	OrigNumFrames
30	30	5	22	m	30	40	50
Frame#	Time	Hip			RHip			RKnee			RAnkle			RBigToe			RSmallToe			RHeel			LHip			LKnee			LAnkle			LBigToe			LSmallToe			LHeel			Neck			Head			Nose			RShoulder			RElbow			RWrist			LShoulder			LElbow			LWrist		
		X1	Y1	Z1	X2	Y2	Z2	X3	Y3	Z3	X4	Y4	Z4	X5	Y5	Z5	X6	Y6	Z6	X7	Y7	Z7	X8	Y8	Z8	X9	Y9	Z9	X10	Y10	Z10	X11	Y11	Z11	X12	Y12	Z12	X13	Y13	Z13	X14	Y14	Z14	X15	Y15	Z15	X16	Y16	Z16	X17	Y17	Z17	X18	Y18	Z18	X19	Y19	Z19	X20	Y20	Z20	X21	Y21	Z21	X22	Y22	Z22
41	1.3666666666666667	0.048480207248910785	0.9197480124304654	0.3570695643522033	0.03932284315187607	0.8881400600544657	0.46993142428534374	0.010333920450392525	0.5107332281191636	0.5011088424307858	-0.010079534767249855	0.10458471284441495	0.5192135743491588	0.2034190526867416	0.043458874693638114	0.5608496099286051	0.14505209220443446	0.03989185785005348	0.614807059901781	-0.04875754629348804	0.04529813365731531	0.5045158364666662	0.0399094100506379	0.8875473139737671	0.24518144489268434	0.01938896908585784	0.5101461312717591	0.2240252222946928	0.004607572238373527	0.11133627758839493	0.20870018279986988	0.21676284418802305	0.0452803305770456	0.18319702402239926	0.1640435703778485	0.042783868398414665	0.12947455204978003	-0.03243630634072364	0.0465218613451244	0.2258850324071905	0.07122836374251137	1.6000282756656627	0.35153963797575255	0.19710129415289157	1.8096693665348809	0.3367309406786661	0.2807173186892117	1.6520448566040824	0.36299126318592156	0.03325478802801031	1.4982065974675411	0.5344318361559227	0.07637374714270044	1.2427537644761673	0.7153332530411205	0.1379159389981441	1.0493201028053245	0.890890025582857	0.019647683843855616	1.4832071297850702	0.14311262796458357	0.02570054628360464	1.2297695007644296	0.001101751559283791	0.0799355168070368	1.0160154684048794	-0.1501204957012965
42	1.4	0.0491215783073475	0.919950293608403	0.35750380548051625	0.03972040980115806	0.8886159463832862	0.4706060611197536	0.01052778774993002	0.5104422157531205	0.500973578765563	-0.009889946978881235	0.10421910169005058	0.5190784907748885	0.20374553094062892	0.04366568969695812	0.5608285712804159	0.14533877688105518	0.039609071112732645	0.6146176068738586	-0.04863186603986982	0.04484496202649969	0.5045752084431311	0.04038198526214757	0.8881249675444481	0.24575843851640075	0.01955463744024307	0.5098655119826694	0.2240205283166123	0.005095104761611546	0.11102954504975614	0.2089599962030462	0.21739180234288327	0.04534299583670722	0.18293581060983152	0.164081582310604	0.042491492617333634	0.12958527900591668	-0.032237864477771105	0.04611231670338286	0.22599788566436727	0.07114235875597648	1.6012707252238587	0.35207502183525996	0.1910228751965933	1.8135375473310973	0.3360859090059477	0.28064653051006805	1.657960672854814	0.3645534091024466	0.03367781887475476	1.498380157085556	0.5345256740127571	0.07922212878447535	1.242753069763837	0.7149852145151518	0.1395971687507417	1.048277551343614	0.8900126018151078	0.019307418680339132	1.4828960492516952	0.14373247434727277	0.025773316637984052	1.2301235096949623	0.0006348934821925214	0.08024478366269047	1.0140061175779356	-0.1505658331507076
43	1.4333333333333331	0.049916836440132326	0.9199749423544618	0.35788506757397065	0.04029203928140681	0.8889412845084957	0.4711684756082911	0.01085983683093315	0.5101876215361103	0.5008465202830847	-0.009556549631546273	0.10400443614233218	0.5187812738628778	0.20398098806003678	0.04390218891210771	0.5606494881812933	0.1453504741110019	0.03912207872316694	0.6145598374546473	-0.04851808176489855	0.04445483765522979	0.5047200701988656	0.04096140371938739	0.8885552062051665	0.24623107569995598	0.020082383530384038	0.5097408402003462	0.2238563403891271	0.005356336898265925	0.11101572625469297	0.2091313884842561	0.21791727475953318	0.04535779372557989	0.18283942338019582	0.1641994661486648	0.04210735064738977	0.12969448727651495	-0.031879561624315066	0.045876844089452154	0.22623685449197364	0.07050639503399808	1.6020313796439551	0.352500831720213	0.18591226392949453	1.816564971186905	0.335282435648429	0.27919537880515494	1.6621140958036849	0.36486334113450336	0.03357229841233732	1.498334544760039	0.5347925802037764	0.08255415630641248	1.2427933793512693	0.7145670222956025	0.14144906878583166	1.0474395376776477	0.8891166888503854	0.018977272416322428	1.4825202155015744	0.14407179645292395	0.02591371924762298	1.2302552605172785	0.00015618479396661906	0.0807213768869468	1.0124141676123228	-0.15106303183046838
44	1.4666666666666666	0.050776345276350145	0.9197937273561481	0.35813606874123594	0.04097413682354244	0.8890980933876615	0.47147938511584747	0.011349292710438384	0.510041313855384	0.5007511655254756	-0.009146291223213176	0.10399059889819735	0.5183754175217326	0.20400050161270752	0.044063640023511874	0.5604320422135555	0.1449914454349876	0.038341566312839755	0.6147750757920218	-0.048504686846906564	0.044355572377338164	0.5050095915302807	0.041613577357533724	0.8887745596503807	0.2464850390308384	0.020915924372576868	0.5097957715341599	0.22365951841084206	0.005274642937264097	0.11121222054084695	0.2092415717777087	0.2181949008423951	0.045211968029100325	0.1828563550288127	0.16449017359421084	0.04170611975943424	0.12980224955932135	-0.03150473225891898	0.0458130974719394	0.2265040333587485	0.0696483038818969	1.6023949380060507	0.3527901555773355	0.18172969687316057	1.8187267160017209	0.3345751971076017	0.27719868750303533	1.6648505123939734	0.36445251880921425	0.0331971561626652	1.498062084207748	0.5351252732777365	0.08577542713009524	1.2427727508008832	0.7141526615195892	0.1433316935447832	1.0468109779954906	0.8883361958613147	0.01873974883527927	1.482185051108213	0.14410020173829607	0.02607900281976024	1.2301738313761668	-0.00017411560885192157	0.0814169092364254	1.0115287105610193	-0.15152222862660508
45	1.5	0.05157365634956523	0.919545083596675	0.3581884221650271	0.04166746640643642	0.889080325865097	0.47142366643061373	0.01194278386913125	0.509973927788657	0.5006960406040303	-0.008784761136445865	0.10411597060206344	0.5179448643134064	0.2037318865915551	0.044084283609936326	0.5604125402561774	0.14431523345325162	0.037340610469855214	0.6153179042953802	-0.04870576437137293	0.044727596460796284	0.505525542340047	0.04226552116229758	0.8887707334965004	0.24650850354405351	0.021933950208839304	0.5099381765951777	0.22355953261384798	0.004950597110769248	0.11147906370395294	0.20933843088329926	0.21824405803373062	0.04492082530890748	0.18291942310386697	0.16496713338083305	0.0413490510560698	0.12995496571456522	-0.031261627028865674	0.04584208766857821	0.22672914765049312	0.06880089052700597	1.6024900329757958	0.35301739665104337	0.17832757138622418	1.8201169964754027	0.33419659051899425	0.2752236230016289	1.6665778819015982	0.3637222945291976	0.032772664070394524	1.4976230017953123	0.5354855533483608	0.0879762771043445	1.2425038686820389	0.7139238317539733	0.1450755496033063	1.0463624012689368	0.8877455572030114	0.018545151841017713	1.481977843694725	0.14393874082484168	0.0261916803031284	1.2299547556874395	-0.00026639498104057103	0.08227382741395858	1.0114751587505	-0.1517836669348714
